<svg width="1013" height="461" viewBox="0 0 1013 461" fill="none" xmlns="http://www.w3.org/2000/svg">
<g filter="url(#filter0_f_510_66)">
<path d="M12.4028 215.669V224.07L20.705 225.351C140.741 243.881 238.189 286.004 297.305 314.175C355.956 342.124 425.659 386.891 500.231 442.307L505.895 446.516L511.682 442.476C525.54 432.802 538.105 423.731 550.197 415.001C598.971 379.787 640.062 350.12 727.391 308.807C836.473 257.202 930.706 233.061 992.907 225.392L1001.51 224.332V215.669V215.13V214.592V214.055V213.519V212.985V212.452V211.921V211.39V210.861V210.333V209.807V209.281V208.757V208.234V207.713V207.192V206.673V206.155V205.638V205.122V204.608V204.095V203.583V203.072V202.563V202.054V201.547V201.041V200.536V200.033V199.53V199.029V198.529V198.03V197.532V197.035V196.54V196.045V195.552V195.06V194.569V194.079V193.591V193.103V192.617V192.131V191.647V191.164V190.682V190.201V189.721V189.242V188.765V188.288V187.812V187.338V186.865V186.392V185.921V185.451V184.982V184.514V184.047V183.581V183.116V182.652V182.189V181.727V181.267V180.807V180.348V179.89V179.434V178.978V178.523V178.07V177.617V177.165V176.714V176.265V175.816V175.368V174.921V174.475V174.03V173.586V173.143V172.701V172.26V171.82V171.381V170.943V170.505V170.069V169.634V169.199V168.765V168.333V167.901V167.47V167.04V166.611V166.183V165.755V165.329V164.903V164.479V164.055V163.632V163.21V162.789V162.369V161.949V161.531V161.113V160.696V160.28V159.865V159.45V159.037V158.624V158.212V157.801V157.391V156.981V156.572V156.165V155.757V155.351V154.946V154.541V154.137V153.734V153.332V152.93V152.529V152.129V151.73V151.331V150.934V150.537V150.14V149.745V149.35V148.956V148.563V148.17V147.778V147.387V146.996V146.607V146.218V145.829V145.442V145.055V144.669V144.283V143.898V143.514V143.13V142.748V142.365V141.984V141.603V141.223V140.843V140.464V140.086V139.709V139.332V138.955V138.58V138.204V137.83V137.456V137.083V136.71V136.338V135.967V135.596V135.226V134.856V134.487V134.119V133.751V133.384V133.017V132.651V132.285V131.92V131.556V131.192V130.829V130.466V130.104V129.742V129.381V129.02V128.66V128.3V127.941V127.583V127.224V126.867V126.51V126.153V125.797V125.442V125.087V124.732V124.378V124.024V123.671V123.318V122.966V122.614V122.263V121.912V121.562V121.212V120.862V120.513V120.165V119.816V119.469V119.121V118.774V118.428V118.082V117.736V117.391V117.046V116.701V116.357V116.013V115.67V115.327V114.984V114.642V114.3V113.959V113.618V113.277V112.936V112.596V112.257V111.917V111.578V111.24V110.901V110.563V110.225V109.888V109.551V109.214V108.878V108.542V108.206V107.87V107.535V107.2V106.865V106.531V106.197V105.863V105.529V105.196V104.863V104.53V104.197V103.865V103.533V103.201V102.869V102.538V102.207V101.876V101.545V101.215V100.885V100.555V100.225V99.8953V99.5659V99.2367V98.9077V98.5788V98.2502V97.9217V97.5934V97.2653V96.9374V96.6096V96.282V95.9545V95.6272V95.3V94.973V94.6461V94.3194V93.9928V93.6664V93.34V93.0138V92.6877V92.3617V92.0359V91.7101V91.3845V91.0589V90.7334V90.4081V90.0828V89.7576V89.4325V89.1075V88.7825V88.4576V88.1328V87.808V87.4833V87.1587V86.8341V86.5095V86.185V85.8605V85.5361V85.2117V84.8873V84.563V84.2386V83.9143V83.59V83.2657V82.9414V82.6171V82.2928V81.9685V81.6442V81.3199V80.9955V80.6711V80.3467V80.0223V79.6978V79.3733V79.0488V78.7242V78.3996V78.0749V77.7501V77.4253V77.1005V76.7755V76.4505V76.1254V75.8002V75.475V75.1496V74.8242V74.4987V74.173V73.8473V73.5215V73.1955V72.8695V72.5433V72.217V71.8905V71.564V71.2373V70.9104V70.5835V70.2563V69.9291V69.6016V69.2741V68.9463V68.6184V68.2903V67.9621V67.6337V67.3051V66.9763V66.6473V66.3181V65.9888V65.6592V65.3295V64.9995V64.6693V64.3389V64.0083V63.6775V63.3464V63.0151V62.6836V62.3518V62.0198V61.6876V61.3551V61.0223V60.6893V60.356V60.0225V59.6887V59.3546V59.0203V58.6856V58.3507V58.0155V57.68V57.3442V57.0082V56.6718V56.3351V55.9981V55.6607V55.3231V54.9851V54.6468V54.3082V53.9693V53.63V53.2904V52.9504V52.6101V52.2694V51.9283V51.587V51.2452V50.9031V50.5606V50.2177V49.8744V49.5308V49.1868V48.8424V48.4975V48.1523V47.8067V47.4607V47.1143V46.7674V46.4202V46.0725V45.7244V45.3758V45.0269V44.6775V44.3276V43.9773V43.6266V43.2754V42.9237V42.5716V42.219V41.866V41.5124V41.1585V40.804V40.449V40.0936V39.7376V39.3812V39.0243V38.6668V38.3089V37.9505V37.5915V37.232V36.872V36.5115V36.1504V35.7888V35.4267V35.064V34.7008V34.3371V33.9728V33.6079V33.2425V32.8765V32.5099V32.1428V31.7751V31.4068V31.0379V30.6684V30.2984V29.9277V29.5565V29.1846V28.8122V28.4391V28.0655V27.6912V27.3162V26.9407V26.5645V26.1877V25.8103V25.4322V25.0535V24.6741V24.2941V23.9134V23.532V23.15V22.7674V22.384V22V12.2031H991.708C910.482 12.2031 818.535 44.207 739.586 73.796C672.341 98.9983 603.685 143.161 538.604 185.024C527.619 192.09 516.736 199.091 505.979 205.923C485.837 193.569 468.001 182.079 450.92 171.076C406.48 142.449 367.155 117.117 305.66 88.4369C261.757 67.961 207.187 49.2793 155.671 35.7116C104.324 22.1881 55.147 13.515 22.1997 13.515H12.4028L12.4028 23.3119V215.669Z" fill="#FED007" stroke="#625001" stroke-width="19.5939"/>
</g>
<g filter="url(#filter1_f_510_66)">
<path d="M79.866 127.199C79.866 126.436 80.1752 125.706 80.7232 125.175L111.503 95.3442C112.219 94.6499 113.249 94.3859 114.211 94.65L130.005 98.9856C132.134 99.5701 132.796 102.264 131.179 103.768L102.389 130.56C101.816 131.093 101.491 131.841 101.491 132.624V163.985C101.491 165.825 99.7561 167.172 97.9732 166.716L81.987 162.63C80.739 162.311 79.866 161.186 79.866 159.898V127.199Z" fill="#967B00"/>
<path d="M107.199 134.679C107.199 133.889 107.53 133.136 108.111 132.602L140.177 103.159C140.928 102.469 141.994 102.239 142.963 102.557L155.547 106.688C157.561 107.349 158.152 109.912 156.632 111.389L129.031 138.193C128.484 138.724 128.175 139.453 128.175 140.215V171.677C128.175 173.556 126.373 174.909 124.569 174.385L109.231 169.924C108.027 169.574 107.199 168.471 107.199 167.217V134.679Z" fill="#967B00"/>
<path d="M134.531 141.308C134.531 140.539 134.845 139.804 135.4 139.272L164.804 111.104C165.598 110.344 166.761 110.114 167.784 110.515L181.943 116.07C183.854 116.82 184.348 119.296 182.872 120.722L157.017 145.697C156.467 146.228 156.156 146.96 156.156 147.724L156.156 180.889C156.156 182.805 154.285 184.163 152.463 183.569L136.476 178.355C135.316 177.977 134.531 176.895 134.531 175.675V141.308Z" fill="#967B00"/>
<path d="M162.236 149.929C162.236 149.172 162.541 148.447 163.081 147.917L190.638 120.883C191.444 120.093 192.644 119.859 193.688 120.29L205.953 125.354C207.841 126.133 208.299 128.601 206.816 130.006L181.674 153.821C181.112 154.353 180.793 155.094 180.793 155.868V189.191C180.793 191.132 178.877 192.493 177.045 191.853L164.126 187.341C162.994 186.945 162.236 185.878 162.236 184.679V149.929Z" fill="#967B00"/>
<path d="M186.641 158.179C186.641 157.39 186.972 156.637 187.552 156.103L214.966 130.904C215.776 130.159 216.947 129.954 217.962 130.379L232.745 136.566C234.639 137.358 235.078 139.844 233.57 141.237L207.316 165.488C206.739 166.021 206.41 166.772 206.41 167.559V199.08C206.41 201.08 204.386 202.444 202.533 201.693L188.402 195.971C187.338 195.54 186.641 194.506 186.641 193.358V158.179Z" fill="#967B00"/>
<path d="M213.002 170.62C213.002 169.803 213.356 169.026 213.973 168.491L243.473 142.879C244.306 142.156 245.483 141.985 246.487 142.441L260.583 148.842C262.451 149.69 262.817 152.184 261.272 153.533L234.311 177.07C233.697 177.605 233.346 178.379 233.346 179.193V210.381C233.346 212.417 231.253 213.782 229.39 212.961L214.685 206.485C213.662 206.035 213.002 205.023 213.002 203.905V170.62Z" fill="#967B00"/>
<path d="M239.407 181.921C239.407 181.073 239.788 180.27 240.446 179.734L271.079 154.797C271.904 154.126 273.038 153.976 274.009 154.41L287.058 160.24C288.965 161.092 289.316 163.65 287.707 164.984L260.568 187.483C259.922 188.018 259.548 188.814 259.548 189.653V222.45C259.548 224.519 257.393 225.883 255.523 224.998L241.02 218.135C240.035 217.669 239.407 216.677 239.407 215.587V181.921Z" fill="#967B00"/>
<path d="M266.79 192.764C266.79 191.929 267.16 191.136 267.802 190.6L296.91 166.288C297.75 165.587 298.92 165.435 299.911 165.898L312.887 171.959C314.796 172.85 315.088 175.443 313.427 176.737L285.755 198.29C285.069 198.825 284.668 199.645 284.668 200.515V234.302C284.668 236.409 282.44 237.772 280.564 236.812L268.325 230.547C267.383 230.065 266.79 229.096 266.79 228.038L266.79 192.764Z" fill="#967B00"/>
<path d="M291.005 203.717C291.005 202.819 291.432 201.976 292.155 201.445L323.356 178.533C324.197 177.916 325.31 177.813 326.25 178.266L339.416 184.619C341.342 185.548 341.573 188.199 339.836 189.447L310.104 210.808C309.367 211.338 308.93 212.19 308.93 213.098V246.273C308.93 248.39 306.685 249.751 304.808 248.773L292.521 242.371C291.589 241.885 291.005 240.921 291.005 239.871L291.005 203.717Z" fill="#967B00"/>
<path d="M317.154 216.622C317.154 215.686 317.618 214.812 318.393 214.287L351.335 191.983C352.173 191.415 353.252 191.341 354.161 191.788L367.007 198.114C368.928 199.06 369.135 201.718 367.383 202.949L335.88 225.093C335.129 225.621 334.682 226.482 334.682 227.4V259.277C334.682 261.384 332.455 262.746 330.579 261.787L318.69 255.71C317.747 255.228 317.154 254.259 317.154 253.2L317.154 216.622Z" fill="#967B00"/>
<path d="M341.471 229.94C341.471 228.987 341.952 228.099 342.749 227.579L377.721 204.755C378.587 204.189 379.695 204.144 380.605 204.637L394.4 212.112C396.258 213.119 396.388 215.737 394.639 216.924L361.698 239.274C360.972 239.767 360.516 240.57 360.467 241.447L358.689 272.802C358.572 274.863 356.353 276.104 354.536 275.124L342.952 268.877C342.04 268.385 341.471 267.432 341.471 266.396L341.471 229.94Z" fill="#967B00"/>
<path d="M366.769 244.504C366.799 243.592 367.269 242.752 368.029 242.248L403.49 218.746C404.404 218.14 405.587 218.119 406.522 218.693L420.239 227.103C421.983 228.172 422.043 230.684 420.354 231.836L387.847 254.001C387.142 254.482 386.693 255.256 386.625 256.107L384.089 287.918C383.922 290.01 381.609 291.193 379.814 290.103L366.936 282.279C366.065 281.75 365.547 280.793 365.582 279.775L366.769 244.504Z" fill="#967B00"/>
<path d="M393.663 258.67C393.717 257.77 394.197 256.95 394.956 256.464L429.134 234.552C430.063 233.956 431.254 233.958 432.182 234.555L446.402 243.711C448.155 244.84 448.119 247.414 446.335 248.494L413.731 268.222C412.976 268.68 412.478 269.464 412.387 270.343L408.918 303.682C408.699 305.786 406.327 306.908 404.561 305.744L392.746 297.949C391.906 297.395 391.425 296.434 391.484 295.429L393.663 258.67Z" fill="#967B00"/>
<path d="M419.139 275.725C419.237 274.86 419.73 274.089 420.474 273.636L455.969 252.031C456.892 251.47 458.055 251.485 458.963 252.071L475.005 262.426C476.743 263.547 476.722 266.095 474.966 267.188L440.495 288.641C439.805 289.071 439.334 289.776 439.203 290.578L434.247 320.729C433.913 322.759 431.588 323.76 429.884 322.606L416.364 313.452C415.495 312.864 415.025 311.841 415.144 310.798L419.139 275.725Z" fill="#967B00"/>
<path d="M446.926 292.978C447.058 292.176 447.53 291.471 448.221 291.042L482.784 269.59C483.709 269.016 484.881 269.026 485.796 269.614L499.48 278.417C501.229 279.542 501.199 282.11 499.423 283.194L467.517 302.67C466.836 303.086 466.364 303.77 466.216 304.553L459.973 337.584C459.603 339.54 457.378 340.508 455.696 339.444L442.391 331.031C441.434 330.426 440.932 329.307 441.116 328.189L446.926 292.978Z" fill="#967B00"/>
<path d="M472.146 309.505C472.293 308.758 472.736 308.102 473.373 307.687L495.98 292.959C497.855 291.738 500.338 293.083 500.338 295.322V318.438C500.338 319.476 499.767 320.431 498.853 320.922L494.086 323.482C493.456 323.82 492.978 324.386 492.749 325.064L483.518 352.402C482.937 354.122 480.906 354.853 479.363 353.897L466.8 346.119C465.802 345.501 465.291 344.329 465.518 343.177L472.146 309.505Z" fill="#967B00"/>
<path d="M506.219 324.847C505.636 324.313 505.304 323.559 505.304 322.768V284.036C505.304 283.03 505.84 282.1 506.71 281.596L520.366 273.686C522.245 272.597 524.598 273.953 524.598 276.125V313.583C524.598 314.418 524.968 315.21 525.609 315.746L550.48 336.539C551.953 337.77 551.791 340.082 550.161 341.096L536.38 349.669C535.306 350.337 533.919 350.208 532.987 349.354L506.219 324.847Z" fill="#967B00"/>
<path d="M532.358 311.728C531.709 311.193 531.333 310.395 531.333 309.554L531.333 268.674C531.333 267.686 531.85 266.77 532.696 266.26L543.485 259.75C545.363 258.616 547.76 259.969 547.76 262.164V299.182C547.76 300.027 548.14 300.828 548.794 301.364L573.966 321.958C575.447 323.17 575.316 325.473 573.708 326.51L562.275 333.877C561.243 334.542 559.9 334.462 558.953 333.681L532.358 311.728Z" fill="#967B00"/>
<path d="M554.312 296.612C553.672 296.076 553.302 295.284 553.302 294.45V255.334C553.302 254.35 553.815 253.437 554.656 252.926L567.014 245.401C568.924 244.239 571.362 245.655 571.299 247.889L570.194 286.832C570.169 287.702 570.548 288.534 571.219 289.088L594.832 308.547C596.311 309.765 596.169 312.072 594.553 313.101L584.628 319.418C583.592 320.078 582.247 319.99 581.305 319.202L554.312 296.612Z" fill="#967B00"/>
<path d="M579.241 285.74C578.57 285.205 578.18 284.394 578.18 283.537V240.157C578.18 239.161 578.705 238.239 579.562 237.732L592.226 230.224C594.105 229.11 596.482 230.465 596.482 232.65V270.745C596.482 271.566 596.84 272.345 597.461 272.881L620.802 293.002C622.256 294.255 622.059 296.565 620.413 297.554L607.046 305.586C606.036 306.193 604.756 306.108 603.835 305.373L579.241 285.74Z" fill="#967B00"/>
<path d="M603.526 268.23C602.914 267.694 602.563 266.921 602.563 266.108V225.865C602.563 224.872 603.085 223.953 603.937 223.444L618.197 214.926C620.105 213.786 622.52 215.199 622.461 217.421L621.486 254.328C621.465 255.133 621.789 255.908 622.376 256.459L646.1 278.707C647.472 279.993 647.223 282.236 645.603 283.192L632.428 290.961C631.38 291.579 630.054 291.455 629.139 290.654L603.526 268.23Z" fill="#967B00"/>
<path d="M630.107 251.86C629.559 251.329 629.25 250.6 629.25 249.837L629.251 210.685C629.251 209.663 629.804 208.72 630.697 208.223L646.205 199.58C648.1 198.524 650.428 199.915 650.397 202.084L649.867 238.364C649.856 239.137 650.163 239.881 650.716 240.422L673.889 263.054C675.236 264.369 674.94 266.609 673.299 267.53L657.995 276.113C656.907 276.724 655.548 276.546 654.653 275.678L630.107 251.86Z" fill="#967B00"/>
<path d="M657.574 237.11C656.98 236.559 656.652 235.779 656.673 234.969L657.727 194.928C657.754 193.901 658.337 192.971 659.25 192.498L672.222 185.786C674.099 184.815 676.337 186.177 676.337 188.29V226.066C676.337 226.828 676.646 227.558 677.193 228.089L699.142 249.392C700.505 250.714 700.197 252.979 698.53 253.889L685.916 260.774C684.852 261.355 683.536 261.191 682.648 260.367L657.574 237.11Z" fill="#967B00"/>
<path d="M683.49 224.35C682.975 223.823 682.686 223.115 682.686 222.378V182.4C682.686 181.352 683.267 180.391 684.195 179.904L699.111 172.072C701.007 171.076 703.276 172.475 703.24 174.616L702.597 212.702C702.585 213.428 702.853 214.131 703.346 214.664L724.14 237.16C725.423 238.548 725.004 240.779 723.306 241.608L709.605 248.291C708.514 248.823 707.203 248.597 706.354 247.728L683.49 224.35Z" fill="#967B00"/>
<path d="M709.464 211.441C708.969 210.917 708.693 210.224 708.693 209.504V169.034C708.693 167.956 709.308 166.973 710.277 166.5L723.328 160.136C725.2 159.222 727.383 160.586 727.383 162.67V199.007C727.383 199.723 727.655 200.412 728.145 200.935L749.891 224.144C751.175 225.516 750.784 227.736 749.108 228.586L735.152 235.665C734.038 236.23 732.686 235.995 731.828 235.088L709.464 211.441Z" fill="#967B00"/>
<path d="M736.263 198.009C735.794 197.491 735.534 196.816 735.534 196.117V156.865C735.534 155.775 736.163 154.783 737.148 154.317L751.478 147.538C753.368 146.644 755.54 148.046 755.503 150.136L754.83 188.129C754.818 188.818 755.059 189.487 755.506 190.011L774.887 212.688C776.111 214.12 775.613 216.327 773.892 217.094L761.258 222.73C760.145 223.227 758.838 222.951 758.02 222.047L736.263 198.009Z" fill="#967B00"/>
<path d="M761.882 187.161C761.472 186.648 761.254 186.008 761.265 185.352L761.96 144.564C761.978 143.467 762.632 142.48 763.635 142.035L779.945 134.8C781.863 133.949 784.005 135.417 783.904 137.513L782.093 174.974C782.06 175.649 782.271 176.314 782.688 176.847L801.527 200.934C802.655 202.377 802.129 204.497 800.456 205.245L784.688 212.292C783.516 212.816 782.138 212.482 781.336 211.479L761.882 187.161Z" fill="#967B00"/>
<path d="M788.163 175.141C787.779 174.612 787.591 173.967 787.63 173.316L790.083 132.414C790.149 131.328 790.833 130.377 791.841 129.969L807.849 123.501C809.772 122.724 811.847 124.219 811.719 126.289L809.331 164.744C809.293 165.348 809.451 165.947 809.78 166.454L825.735 191.021C826.699 192.504 826.074 194.498 824.436 195.167L809.711 201.173C808.509 201.664 807.128 201.27 806.365 200.219L788.163 175.141Z" fill="#967B00"/>
<path d="M815.834 164.777C815.518 164.273 815.37 163.683 815.409 163.091L818.187 121.554C818.261 120.444 818.981 119.482 820.024 119.097L835.033 113.562C837.008 112.834 839.056 114.449 838.808 116.54L834.387 153.77C834.315 154.38 834.444 154.997 834.754 155.527L850.379 182.208C851.269 183.729 850.562 185.685 848.904 186.284L835.08 191.282C833.832 191.733 832.438 191.252 831.733 190.128L815.834 164.777Z" fill="#967B00"/>
<path d="M840.448 154.13C840.143 153.601 840.019 152.987 840.093 152.381L845.088 111.69C845.224 110.581 846.002 109.658 847.07 109.335L862.27 104.738C864.232 104.145 866.151 105.777 865.881 107.808L861.014 144.398C860.932 145.015 861.057 145.642 861.368 146.181L877.088 173.367C877.987 174.922 877.223 176.909 875.514 177.461L859.436 182.656C858.17 183.065 856.789 182.532 856.126 181.379L840.448 154.13Z" fill="#967B00"/>
<path d="M866.578 145.142C866.263 144.588 866.144 143.944 866.242 143.315L872.495 103.032C872.67 101.905 873.507 100.995 874.615 100.725L888.949 97.2391C890.939 96.7553 892.765 98.4871 892.386 100.5L885.453 137.367C885.336 137.991 885.433 138.637 885.729 139.2L900.352 167.01C901.189 168.602 900.341 170.561 898.606 171.04L885.777 174.576C884.534 174.919 883.216 174.374 882.578 173.253L866.578 145.142Z" fill="#967B00"/>
<path d="M891.406 137.388C891.111 136.819 891.019 136.167 891.145 135.539L898.989 96.289C899.215 95.1572 900.109 94.2776 901.244 94.0688L915.542 91.4386C917.548 91.0696 919.269 92.8864 918.793 94.8694L910.847 127.971C910.691 128.62 910.77 129.302 911.07 129.898L926.496 160.514C927.314 162.138 926.404 164.1 924.636 164.524L909.716 168.101C908.455 168.403 907.151 167.807 906.555 166.655L891.406 137.388Z" fill="#967B00"/>
<path d="M917.78 129.238L932.666 158.847C934.053 161.605 938.227 160.45 937.997 157.372L937.896 156.019V89.9648C937.896 87.9498 935.843 86.5854 933.985 87.3653L927.792 89.9654C926.966 90.312 926.354 91.0302 926.143 91.9003L917.557 127.302C917.399 127.951 917.48 128.641 917.78 129.238Z" fill="#967B00"/>
<path d="M490.538 359.22L504.731 367.755C505.631 368.296 506.757 368.292 507.654 367.744L527.049 355.899C528.659 354.915 528.868 352.659 527.465 351.397L502.818 329.217C501.322 327.871 498.938 328.48 498.271 330.379L489.331 355.87C488.888 357.132 489.393 358.531 490.538 359.22Z" fill="#967B00"/>
<path d="M77.2185 92.939C77.2185 91.2752 78.6519 89.9732 80.308 90.1327L100.942 92.1198C103.318 92.3486 104.352 95.2411 102.661 96.9245L82.0264 117.458C80.2484 119.227 77.2185 117.968 77.2185 115.459V92.939Z" fill="#967B00"/>
</g>
<defs>
<filter id="filter0_f_510_66" x="0.914155" y="0.714448" width="1012.08" height="459.566" filterUnits="userSpaceOnUse" color-interpolation-filters="sRGB">
<feFlood flood-opacity="0" result="BackgroundImageFix"/>
<feBlend mode="normal" in="SourceGraphic" in2="BackgroundImageFix" result="shape"/>
<feGaussianBlur stdDeviation="0.845779" result="effect1_foregroundBlur_510_66"/>
</filter>
<filter id="filter1_f_510_66" x="76.0908" y="86.0149" width="863.043" height="283.271" filterUnits="userSpaceOnUse" color-interpolation-filters="sRGB">
<feFlood flood-opacity="0" result="BackgroundImageFix"/>
<feBlend mode="normal" in="SourceGraphic" in2="BackgroundImageFix" result="shape"/>
<feGaussianBlur stdDeviation="0.563853" result="effect1_foregroundBlur_510_66"/>
</filter>
</defs>
</svg>
