<svg width="47" height="53" viewBox="0 0 47 53" fill="none" xmlns="http://www.w3.org/2000/svg">
<path d="M35.6462 27.2446C40.4531 32.3176 43.1366 35.736 37.7247 40.266C34.954 41.568 28.9248 39.4071 25.2561 40.2656C20.7441 41.3215 16.8243 45.0164 14.173 42.2184C9.36609 37.1454 14.3021 28.5188 19.714 23.9888C25.1259 19.4588 30.8393 22.1716 35.6462 27.2446Z" fill="white"/>
<path d="M22.4757 7.70469C23.9033 11.5648 25.2442 16.1144 21.0894 17.475C16.9346 18.8355 14.8575 16.8244 12.7808 12.9167C10.704 9.00892 10.8799 3.79817 14.8597 2.49497C17.8408 1.51878 21.0482 3.84461 22.4757 7.70469Z" fill="white"/>
<path d="M36.3292 10.9618C35.6373 14.8694 33.5601 17.1175 29.4051 16.8223C25.2501 16.5271 24.8811 12.2984 25.2487 7.70391C25.6164 3.10939 28.8086 0.301808 32.1727 0.540816C35.5367 0.779824 37.0211 7.05424 36.3292 10.9618Z" fill="white"/>
<path d="M46.023 20.7284C46.023 24.636 42.1037 28.0806 39.0979 27.8923C36.092 27.7039 34.6659 24.6368 34.9428 20.7284C35.3406 16.9639 37.4771 13.3762 40.4829 13.5645C43.4888 13.7529 46.023 16.8208 46.023 20.7284Z" fill="white"/>
<path d="M12.8049 17.4765C15.5799 20.397 16.9689 24.7436 14.194 26.5811C12.0286 28.3887 8.42076 27.6625 5.64581 24.742C2.87085 21.8215 3.0073 17.332 5.17274 15.5244C7.33817 13.7168 10.0299 14.556 12.8049 17.4765Z" fill="white"/>
</svg>
